<svg xmlns="http://www.w3.org/2000/svg" xmlns:xlink="http://www.w3.org/1999/xlink" width="280" height="280"><defs><path id="A" d="M0 0h220v111H0z"/><path d="M140 280c77.32 0 140-62.68 140-140S217.32 0 140 0 0 62.68 0 140s62.68 140 140 140zM74.406 151.292v-41.684h-11.25v41.19c0 7.317-1.478 9.784-6.652 9.784-5.338 0-6.652-2.55-6.652-9.784v-41.19H38.27v41.684c0 6.742.493 12.415 4.353 15.95 2.7 2.55 7.227 4.03 13.633 4.03 6.652 0 11.25-1.644 13.96-4.193 3.778-3.535 4.188-9.208 4.188-15.786zm20.007-41.684H82.916v60.923h11.497v-60.923zm20.254 46.206l4.024-9.044 8.13 23.76h12.236l-12.73-36.833 12-24.1h-12.236l-11.415 24.5v-24.5h-11.333v60.923h11.333v-14.717zm76.368-12.7c0-5.92.74-8.386 5.174-8.386 3.45 0 4.27 1.15 4.27 7.4v28.94h11.17v-33.05c0-4.686-.575-8.386-2.628-10.935-1.643-1.973-4.106-3.124-9.444-3.124-4.927 0-8.377 1.233-9.855 3.29l-.575-2.713-9.198.575v45.96h11.087v-27.954zm30.848 27.954h11.087V134.49h7.884v-9.948h-7.884v-2.138c0-2.96.657-3.946 4.68-4.03h3.203v-10.03c-.74-.082-2.053-.164-3.942-.164-10.758 0-15.03 3.782-15.03 12.744v3.618h-5.667v9.948h5.667v36.587zm-64.706-47.658c-5.75 0-9.526 1.727-12 4.275-4.106 4.193-4.6 10.935-4.6 19.486 0 8.797.575 15.704 4.927 19.814 2.464 2.384 6.077 3.946 11.662 3.946s9.28-1.644 11.662-4.11c4.27-4.11 4.845-10.935 4.845-19.65 0-8.468-.493-15.2-4.435-19.403-2.464-2.55-6.24-4.358-12.072-4.358zm0 37.49c-5 0-5.42-3.29-5.42-13.32 0-10.113.41-13.4 5.42-13.4 4.845 0 5.256 3.29 5.256 13.4 0 10.03-.41 13.32-5.256 13.32z" id="B"/></defs><g fill="none" fill-rule="evenodd"><g transform="translate(30 88)"><mask id="C" fill="#fff"><use xlink:href="#A"/></mask><path fill="#fff" mask="url(#C)" d="M-2-1h224v113H-2z"/></g><mask id="D" fill="#fff"><use xlink:href="#B"/></mask><path fill="#3399ff" mask="url(#D)" d="M-2.745-2.745h285.5v285.5h-285.5z"/></g></svg>